# xmcd
#
# Track frame offsets: 
#        224
#        33103
#        62443
#        83930
#        113253
#        145067
#        165988
#        191720
#        218160
#        234399
#        268144
#
# Disc length: 3857 seconds
#
# Revision: 3
# Processed by: cddbd v1.5.2PL0 Copyright (c) Steve Scherf et al.
# Submitted via: ExactAudioCopy v0.99pb4
#
DISCID=880f0f0b
DTITLE=Enrico Peranunzi, Marc Johnson, Joey Baron - Play Morricone
DYEAR=2001
DGENRE=Jazz
TTITLE0=Addio Fratello Crudele
TTITLE1=Mio Caro Dottor Gräsler
TTITLE2=La Voglia Matta
TTITLE3=Just Beyond The Horizon
TTITLE4=Incontro
TTITLE5=Jona Che Visse Nella Balena
TTITLE6=Le Mani Sporche
TTITLE7=Correva L'anno Di Grazia 1870
TTITLE8=Escalation
TTITLE9=Stanno Tutti Bene
TTITLE10=Hidden Song
EXTD=YEAR: 2001 ID3G:   8
EXTT0=
EXTT1=
EXTT2=
EXTT3=
EXTT4=
EXTT5=
EXTT6=
EXTT7=
EXTT8=
EXTT9=
EXTT10=
PLAYORDER=
